<svg version="1.1" xmlns="http://www.w3.org/2000/svg" xmlns:xlink="http://www.w3.org/1999/xlink">
  <defs>
    <symbol id="chrome-tab-geometry-left" viewBox="0 0 214 36">
      <path d="M17 1h197v34H0v-2c4.5 0 9-3.5 9-8V8c0-4.5 3.5-8 8-8z"/>
    </symbol>
    <symbol id="chrome-tab-geometry-right" viewBox="0 0 214 36">
      <use xlink:href="#chrome-tab-geometry-left"/>
    </symbol>
    <clipPath id="crop">
      <rect class="mask" width="100%" height="100%" x="0"/>
    </clipPath>
  </defs>
  <svg width="48%" height="100%">
    <!-- Línea superior -->
    <path d="M17 1h197" stroke="#FFFFFF1F" stroke-width="2" fill="none"/>
    <!-- Línea izquierda curvada -->
    <path d="M17 1c-4.5 0-8 3.5-8 8v17c0 4.5-4.5 8-9 8" stroke="#FFFFFF1F" stroke-width="2" fill="none"/>
    <!-- Línea derecha -->
    <path d="M214 1v34" stroke="#FFFFFF1F" stroke-width="2" fill="none"/>
  </svg>
  <g transform="scale(-1, 1)">
    <svg width="52%" height="100%" x="-100%" y="0">
      <!-- Línea superior -->
      <path d="M17 1h197" stroke="#FFFFFF1F" stroke-width="2" fill="none"/>
      <!-- Línea izquierda curvada -->
      <path d="M17 1c-4.5 0-8 3.5-8 8v17c0 4.5-4.5 8-9 8" stroke="#FFFFFF1F" stroke-width="2" fill="none"/>
      <!-- Línea derecha -->
      <path d="M214 1v34" stroke="#FFFFFF1F" stroke-width="2" fill="none"/>
    </svg>
  </g>
</svg>